<svg width="129" height="252" viewBox="0 0 129 252" fill="none" xmlns="http://www.w3.org/2000/svg">
<path d="M84.9835 189.233C84.9835 209.257 84.9337 229.233 85.0333 249.257C85.0333 251.449 84.4356 252.047 82.2438 251.997C65.2077 251.898 48.2214 251.898 31.1853 251.997C28.8441 251.997 28.0969 251.449 28.0969 249.008C28.1965 209.307 28.1467 169.656 28.1467 129.955C28.1467 125.97 28.595 126.468 24.5103 126.418C17.2874 126.418 10.0645 126.368 2.84157 126.468C1.09811 126.468 0.599976 125.92 0.599976 124.177C0.649789 111.574 0.649789 98.9212 0.599976 86.3185C0.599976 84.575 1.09811 84.0271 2.84157 84.0769C10.4132 84.1765 17.935 84.0271 25.5066 84.1765C27.5489 84.2263 28.1965 83.6784 28.1965 81.5364C28.0969 70.9262 28.1965 60.2662 28.1467 49.656C28.0969 40.8391 29.4418 32.321 33.8752 24.5501C38.6572 16.0819 45.8303 10.2538 54.6971 6.46796C62.1691 3.27991 70.0396 1.78552 78.1093 1.3372C94.0993 0.440563 110.139 1.18776 126.129 0.888881C127.922 0.839068 128.371 1.48664 128.371 3.18029C128.321 16.2812 128.321 29.4318 128.371 42.5327C128.371 44.5252 127.624 44.8241 125.88 44.8241C116.665 44.7743 107.449 44.7743 98.2338 44.7743C90.5626 44.7743 85.0333 50.3036 85.0333 57.8752C85.0333 65.6958 85.133 73.4667 84.9835 81.2874C84.9337 83.529 85.6809 84.0769 87.8229 84.0769C100.426 83.9773 113.078 84.0769 125.681 83.9773C127.773 83.9773 128.47 84.575 128.221 86.6672C127.474 93.0931 126.827 99.519 126.129 105.945C125.482 112.122 124.386 118.249 123.389 124.376C123.091 126.119 122.543 126.518 120.949 126.518C110.139 126.468 99.3795 126.468 88.5701 126.518C84.336 126.518 84.9337 125.97 84.9337 130.254C84.9835 149.88 84.9835 169.556 84.9835 189.233Z" fill="black"/>
</svg>
