<svg width="68" height="68" viewBox="0 0 68 68" fill="none" xmlns="http://www.w3.org/2000/svg">
<path d="M65.6216 29.9116C63.7831 13.5769 49.9941 1.27283 33.5179 1.27283C17.1125 1.27283 3.32353 13.5769 1.48499 29.8409L0.212158 29.6994C2.19212 12.799 16.4761 0 33.5179 0C50.6305 0 64.9852 12.799 66.8237 29.7701L65.6216 29.9116Z" fill="#65B500"/>
<path d="M8.98063 25.7393L8.13208 25.3858C8.34422 24.7494 14.072 10.1825 19.0926 9.33395C24.1132 8.55611 32.9523 19.658 33.3059 20.153L32.5987 20.7187C30.1238 17.6074 22.9818 9.68751 19.234 10.2532C15.4862 10.8896 10.5363 21.638 8.98063 25.7393Z" fill="#65B500"/>
<path d="M51.1256 23.194C51.1256 23.194 50.277 21.6383 49.1456 20.0119C47.2363 17.2541 46.2464 16.6177 45.8928 16.547C44.6907 16.1934 41.2258 19.0219 39.2458 21.214L38.6094 20.5776C38.6801 20.5069 39.9529 19.1634 41.4379 17.8905C43.63 16.052 45.1857 15.3449 46.1757 15.6984C48.297 16.3348 51.6206 22.1333 51.9741 22.7697L51.1256 23.194Z" fill="#65B500"/>
<path d="M41.7914 17.5367C40.0943 14.7082 36.7707 10.2533 35.2858 10.2533C33.8008 10.2533 30.9016 13.8596 29.4873 16.1224L28.7095 15.6274C29.1338 14.991 32.8108 9.33398 35.2858 9.33398C37.7607 9.33398 42.0742 16.2639 42.5692 17.0417L41.7914 17.5367Z" fill="#65B500"/>
<path d="M38.3264 22.9111C38.8214 26.6589 34.0129 26.5174 34.0129 28.7802C34.0129 31.6795 41.0135 31.6088 41.0135 35.7808C41.0135 41.5086 31.6086 42.4278 31.6086 46.8828C31.6086 53.4591 53.2468 55.2269 58.126 55.5097C63.3587 49.7113 66.4701 42.0036 66.4701 33.5887C66.4701 32.3159 66.3994 31.1138 66.258 29.9117L66.1873 29.1338C66.1873 29.1338 57.7724 21.2847 36.7707 20.5068C37.3364 21.1433 38.2557 22.1332 38.3264 22.9111Z" fill="#65B500"/>
<path d="M58.3382 56.1462H58.0554C55.5097 56.0047 48.8627 55.439 42.8521 54.1662C34.9322 52.3984 30.9016 49.9234 30.9016 46.8121C30.9016 44.4078 33.2351 42.9228 35.498 41.5086C37.9022 40.0236 40.3771 38.3972 40.3771 35.7101C40.3771 33.8009 38.6093 32.9523 36.7708 32.0331C35.1444 31.2552 33.3766 30.4067 33.3766 28.7095C33.3766 27.4367 34.508 26.7296 35.498 26.0932C36.9829 25.1739 37.9022 24.5375 37.6901 22.9111C37.6901 22.7697 37.4779 22.1332 36.2758 20.8604L35.1444 19.729L36.7708 19.7997C57.7725 20.5068 66.2581 28.2853 66.6116 28.5681L66.7531 28.7095L66.8945 29.6995C67.0359 30.9724 67.1066 32.2452 67.1066 33.4473C67.1066 41.7207 64.066 49.6406 58.5504 55.7926L58.3382 56.1462ZM38.185 21.214C38.68 21.8504 38.8922 22.3454 38.9629 22.8404C39.3164 25.386 37.4779 26.5174 36.2051 27.2953C35.2858 27.861 34.6494 28.2146 34.6494 28.7803C34.6494 29.6288 35.6394 30.1945 37.2658 30.9724C39.175 31.8916 41.5793 33.0937 41.5793 35.7808C41.5793 39.1751 38.68 41.0136 36.1344 42.64C34.013 43.9835 32.1744 45.1857 32.1744 46.8828C32.1744 49.287 35.9222 51.4084 43.0642 52.9641C48.792 54.1662 55.0147 54.7319 57.7725 54.8733C62.9346 49.0042 65.7631 41.4379 65.7631 33.5887C65.7631 32.3866 65.6924 31.1845 65.5509 29.9824L65.4802 29.4874C64.2781 28.356 56.0754 22.1332 38.185 21.214Z" fill="#65B500"/>
<path d="M19.3045 48.2262C20.7188 38.1143 32.3864 40.4478 32.3864 36.7C32.3864 32.2451 26.2344 32.2451 26.2344 29.3459C26.2344 26.4466 34.0835 24.7495 34.0835 23.0524C34.0835 21.9917 33.3057 21.0725 32.74 20.436C11.4554 20.6482 0.91917 29.7701 0.91917 29.7701C0.777744 31.043 0.707031 32.3158 0.707031 33.5886C0.707031 51.5497 15.1325 66.1873 32.9521 66.4701C27.3658 64.773 17.7488 59.3989 19.3045 48.2262Z" fill="#65B500"/>
<path d="M37.5486 67.1774L32.8815 67.1067C24.0424 66.9652 15.769 63.3589 9.61696 57.0654C3.39422 50.772 0 42.4278 0 33.518C0 32.2452 0.0707131 30.9016 0.212139 29.6288V29.346L0.424278 29.2045C0.565703 29.1338 3.18208 26.871 8.55626 24.5375C13.4355 22.4161 21.6382 19.8704 32.6694 19.729H32.9522L33.1644 19.9411C33.8715 20.6483 34.72 21.7797 34.72 22.9818C34.72 24.1132 33.2351 24.891 31.1844 25.881C29.3459 26.8003 26.8709 28.0731 26.8709 29.2752C26.8709 30.1238 27.7195 30.6895 29.1337 31.5381C30.9015 32.528 33.0229 33.8009 33.0229 36.6294C33.0229 38.5386 31.043 39.1751 28.7094 39.8822C25.1738 41.0136 20.7896 42.3571 19.941 48.2263C19.3046 52.9641 20.6482 56.9947 23.901 60.3889C27.2245 63.7124 31.3965 65.2681 33.0936 65.7631L37.5486 67.1774ZM1.41426 30.0531C1.27283 31.1845 1.20212 32.3866 1.20212 33.518C1.20212 42.0036 4.45491 50.0648 10.4655 56.1462C15.4154 61.2375 21.7796 64.4196 28.7094 65.4803C26.8709 64.561 24.8202 63.2174 22.9817 61.3789C19.3753 57.7018 17.9611 53.2469 18.6682 48.1556C19.5875 41.5086 24.8202 39.8822 28.2852 38.7508C30.4066 38.1144 31.7501 37.6194 31.7501 36.7001C31.7501 34.5787 30.1944 33.6594 28.4973 32.7402C27.083 31.8916 25.5981 31.0431 25.5981 29.4167C25.5981 27.366 28.2852 26.0225 30.6187 24.891C31.6087 24.3961 33.3058 23.5475 33.4472 23.1232C33.4472 22.5575 33.0936 21.8504 32.4572 21.1433C13.294 21.3554 2.89923 28.9217 1.41426 30.0531Z" fill="#65B500"/>
</svg>
