<svg width="120" height="13" viewBox="0 0 120 13" fill="none" xmlns="http://www.w3.org/2000/svg">
<path d="M3.43855 12.975C2.88521 12.975 2.39386 12.9015 1.96481 12.7547C1.53575 12.6079 1.17435 12.3736 0.880738 12.0518C0.587125 11.7299 0.369769 11.3093 0.22862 10.7898C0.0874708 10.2704 0.0281858 9.64369 0.0507649 8.90966H1.06708C1.06708 9.27101 1.08402 9.64648 1.11789 10.0361C1.15177 10.4257 1.24211 10.7814 1.38891 11.1032C1.53572 11.425 1.75875 11.6876 2.058 11.8908C2.35726 12.0941 2.77225 12.1957 3.30299 12.1957C3.75469 12.1957 4.13864 12.128 4.45481 11.9925C4.77099 11.857 5.02791 11.6763 5.22553 11.4504C5.42315 11.2246 5.56149 10.9592 5.64054 10.6543C5.7196 10.3494 5.75911 10.0332 5.75911 9.70577C5.75911 9.32182 5.68853 8.98588 5.54738 8.69792C5.40623 8.40997 5.21991 8.15306 4.98841 7.92722C4.75691 7.70138 4.48589 7.50094 4.17536 7.32592C3.86482 7.15089 3.54016 6.99561 3.20139 6.8601C2.65936 6.64554 2.18508 6.43381 1.77855 6.22491C1.37202 6.016 1.03889 5.78169 0.779174 5.52197C0.519455 5.26226 0.324662 4.96019 0.194794 4.61576C0.0649256 4.27133 0 3.85071 0 3.35384C0 2.22463 0.296425 1.38337 0.889275 0.82999C1.48212 0.276607 2.33185 0 3.43853 0C4.39835 0 5.15779 0.279486 5.71677 0.838459C6.27574 1.39743 6.55523 2.23589 6.55523 3.35384V4.28546H5.60667V3.26914C5.60667 2.91908 5.56432 2.59441 5.47963 2.29518C5.39494 1.99594 5.26225 1.73337 5.08157 1.50753C4.90089 1.28169 4.67222 1.10384 4.39556 0.973968C4.1189 0.8441 3.7886 0.779174 3.40465 0.779174C2.50123 0.779174 1.85477 1.01631 1.46519 1.49059C1.0756 1.96487 0.897744 2.60287 0.931621 3.40465C0.942919 3.75472 1.00784 4.05398 1.12641 4.3024C1.24498 4.55082 1.40307 4.76821 1.60069 4.95453C1.79832 5.14086 2.03546 5.30741 2.31211 5.45422C2.58877 5.60103 2.8965 5.74783 3.23527 5.89464C3.63049 6.06403 4.02291 6.24471 4.4125 6.43667C4.80208 6.62864 5.16626 6.86578 5.50504 7.14809C5.84381 7.44169 6.12329 7.78329 6.34349 8.17288C6.5637 8.56247 6.6738 9.04521 6.6738 9.62113C6.6738 10.7391 6.38867 11.5775 5.8184 12.1365C5.24813 12.6955 4.45484 12.975 3.43853 12.975L3.43855 12.975ZM20.9861 12.8225H20.1561L17.8355 1.47369L15.5318 12.8225H14.7188L11.8054 0.118604H12.7031L15.0237 11.1964L17.5814 0.118604H18.1234L20.6642 11.1964L22.9848 0.118604H23.8995L20.9861 12.8225ZM29.2004 12.8225V0.118604H35.4338V1.10104H30.0812V5.92853H35.383V6.70771H30.0812V11.8401H35.5524V12.8225H29.2004ZM41.3953 12.8225V0.118604H47.6287V1.10104H42.2761V5.92853H47.5779V6.70771H42.2761V11.8401H47.7473V12.8225H41.3953ZM56.9949 1.05023V12.8225H56.0125V1.05023H53.2515V0.118604H59.7559V1.05023H56.9949ZM78.556 12.8225L78.5391 6.91097H73.8979L73.9149 12.8225H72.9324V0.118604H73.9149L73.8979 6.01323H78.5391L78.556 0.118604H79.5554V12.8225H78.556ZM88.7353 12.975C86.601 12.975 85.5339 11.857 85.5339 9.62114V3.35387C85.5339 2.22466 85.8021 1.38341 86.3385 0.830024C86.8748 0.276641 87.7416 3.39232e-05 88.9385 3.39232e-05C90.0339 3.39232e-05 90.8441 0.27952 91.3692 0.838493C91.8943 1.39747 92.1569 2.22466 92.1569 3.31999V9.62114C92.1569 10.1858 92.0976 10.677 91.979 11.0948C91.8604 11.5126 91.6656 11.8627 91.3946 12.145C91.1236 12.4273 90.7707 12.6362 90.336 12.7717C89.9012 12.9072 89.3677 12.975 88.7353 12.975V12.975ZM91.2591 3.30306C91.2591 3.02074 91.2196 2.73275 91.1406 2.43919C91.0615 2.14563 90.9316 1.8774 90.751 1.63462C90.5703 1.39184 90.3303 1.19422 90.031 1.04177C89.7318 0.889326 89.362 0.813102 88.9216 0.813102C88.436 0.813102 88.0323 0.880856 87.7105 1.01637C87.3886 1.15187 87.1346 1.34103 86.9482 1.58381C86.7619 1.82659 86.6292 2.11171 86.5502 2.4392C86.4711 2.7667 86.4316 3.12239 86.4316 3.50634V9.51953C86.4316 9.81312 86.4655 10.1124 86.5332 10.4173C86.601 10.7222 86.7224 11.0017 86.8974 11.2557C87.0724 11.5098 87.3096 11.7187 87.6088 11.8825C87.9081 12.0462 88.2836 12.1281 88.7352 12.1281C89.2208 12.1281 89.6245 12.0631 89.9464 11.9333C90.2682 11.8034 90.5251 11.6256 90.7171 11.3997C90.909 11.1739 91.0474 10.9057 91.1321 10.5951C91.2167 10.2846 91.2591 9.94867 91.2591 9.5873V3.30309L91.2591 3.30306ZM105.91 12.8225V2.0496L102.844 9.384L101.896 9.36706L98.8976 2.03266V12.8225H98.0676V0.118604H98.9484L102.387 8.38463L105.842 0.118604H106.74V12.8225H105.91V12.8225ZM113.074 12.8225V0.118604H119.308V1.10104H113.955V5.92853H119.257V6.70771H113.955V11.8401H119.426V12.8225H113.074V12.8225Z" fill="black"/>
</svg>
