<svg width="180" height="29" viewBox="0 0 180 29" fill="none" xmlns="http://www.w3.org/2000/svg">
<path d="M8.93484 25.8575C9.88185 25.034 10.7053 24.6223 11.3641 24.6223C11.8994 24.6223 12.27 24.8281 12.4347 25.2399C12.5582 25.6516 12.517 26.0222 12.3111 26.3104C11.9406 26.8045 11.4876 27.1751 10.87 27.4633C10.2112 27.6692 9.59363 27.7927 8.97601 27.7927C7.78196 27.7927 6.83495 27.5045 6.21733 26.9692C5.10562 26.1457 4.44683 24.9928 4.19979 23.5106C3.99391 22.0283 3.82922 20.6284 3.78804 19.352C3.74687 18.0755 3.70569 16.8815 3.70569 15.6051C3.70569 14.3287 3.74687 13.1346 3.78804 11.8582H1.15288C0.370569 11.8582 0 11.4465 0 10.6642C0 9.88185 0.370569 9.4701 1.15288 9.4701H3.87039C3.91156 8.11135 3.95274 6.7526 4.07626 5.39384L4.24096 1.35875C4.24096 0.65879 5.47619 0.494092 6.01146 0.494092C6.46438 0.494092 6.87612 0.57644 7.28786 0.699964C7.65843 0.823487 7.82313 1.07053 7.78196 1.35875L7.65843 5.39384L7.53491 9.4701H10.4995C11.2818 9.4701 11.6523 9.88185 11.6523 10.6642C11.6523 11.4465 11.2818 11.8582 10.4995 11.8582H7.45256V12.517L7.32904 16.0992C7.28786 17.2932 7.32904 18.4461 7.37021 19.7225C7.41139 20.6695 7.53491 21.7401 7.69961 22.9341C7.8643 24.1282 8.27605 25.0752 8.93484 25.8575V25.8575ZM30.188 1.02936C31.2586 1.85285 31.7526 3.00573 31.7115 4.48801C31.6291 5.92911 31.3821 7.28786 31.0115 8.48192V8.56427C30.888 9.26423 29.8586 9.38776 29.241 9.38776C28.9528 9.38776 28.7881 9.38776 28.7469 9.34658C28.4587 9.30541 28.1293 9.18188 27.7999 9.05836C27.4293 8.93484 27.347 8.72897 27.4705 8.3584C27.8823 7.28786 28.0881 6.21733 28.0881 5.10562C28.0881 4.69388 28.047 4.07626 27.9646 3.2116C27.8411 2.34694 27.5117 1.89402 26.9764 1.7705C24.3001 1.7705 21.4179 7.08199 20.7591 9.18188C20.1826 10.7877 19.9356 12.3935 20.0179 14.0405C20.1003 16.0992 20.1415 18.1579 20.1415 20.2166C20.1003 22.3165 20.0179 24.3341 19.8121 26.4339C19.7709 26.7222 19.565 26.928 19.1945 27.0516C18.9062 27.1751 18.4945 27.2574 18.0004 27.2574C17.5887 27.2574 17.1769 27.1751 16.7652 27.0516C16.3946 26.928 16.1887 26.7222 16.2299 26.4339C16.971 18.3226 16.5593 10.2524 14.9535 2.18224C14.9123 1.9352 15.077 1.72932 15.4476 1.56463C15.8593 1.4411 16.2711 1.35875 16.6828 1.35875C17.3004 1.35875 18.371 1.39993 18.4945 2.18224C18.618 2.67633 18.6592 3.17043 18.7827 3.62334L19.0298 5.10562C20.8414 2.30576 23.6825 0.0823487 27.1411 0.0823487C28.3352 0.0823487 29.3234 0.411744 30.188 1.02936V1.02936ZM51.8529 14.5346C52.0176 18.9814 51.6882 23.4694 50.8236 27.9574C50.7001 28.7397 49.6295 28.7809 49.0119 28.7809C48.6002 28.7809 48.1884 28.6985 47.7767 28.575C47.4061 28.4103 47.2414 28.2044 47.2826 27.9574L47.4473 27.0516L47.5708 26.1457C46.1297 27.1751 43.9886 27.6692 42.2181 27.6692C40.9829 27.6692 39.7477 27.4221 38.5124 26.8869C37.3184 26.3516 36.4537 25.4869 36.0008 24.2105C35.6302 23.1812 35.5067 22.0695 35.6302 20.8754C35.8773 18.5285 36.7831 16.5109 38.3477 14.7816C39.9535 13.0111 41.9299 12.1464 44.3592 12.1464C45.7591 12.1464 47.0767 12.4758 48.2708 13.0934C48.1472 10.3348 46.9944 2.71751 43.2063 2.71751C40.777 2.71751 37.4831 6.01146 37.2772 8.44074C37.1537 9.22306 36.0832 9.30541 35.4655 9.30541C35.0126 9.30541 34.6009 9.22306 34.2303 9.05836C33.8597 8.93484 33.6539 8.72897 33.695 8.44074C34.0244 4.40566 39.5418 0.864662 43.4534 0.864662C50.3295 0.864662 51.7294 9.09953 51.8529 14.5346V14.5346ZM39.3771 23.5517C39.83 24.9105 40.777 25.9399 42.2593 25.9399C45.9238 25.9399 47.9002 21.9871 48.0237 18.7755C48.0237 17.7462 47.7355 16.6344 47.1179 15.5227C46.5414 14.411 45.6356 13.8346 44.4004 13.8346C41.724 13.8346 40.1594 17.3344 39.5006 19.4755C39.0477 20.9578 39.0065 22.3165 39.3771 23.5517ZM68.2475 0.699964C68.4122 0.28822 68.9475 0.0823487 69.8945 0.0823487C70.3886 0.0823487 70.8415 0.164697 71.2533 0.329395C71.665 0.535266 71.8297 0.823487 71.7062 1.15288C68.9063 9.34658 66.8888 17.5815 65.5712 26.1046C65.4477 26.8869 64.3772 26.9692 63.7595 26.9692C63.1419 26.9692 62.1537 26.8869 62.0302 26.1046C61.4126 17.9109 59.0245 10.3759 54.8659 3.49982C54.66 3.2116 54.7835 2.96455 55.2364 2.75868C55.6482 2.59399 56.1423 2.51164 56.6775 2.51164C57.5422 2.51164 58.0775 2.71751 58.2833 3.08808C60.7126 7.04082 62.6067 11.4053 63.8831 16.1815C65.1595 10.9112 66.477 5.84676 68.2475 0.699964V0.699964ZM87.1126 20.9578C87.3597 20.5872 87.8949 20.4225 88.7184 20.4225C89.2537 20.4225 89.7478 20.5048 90.2007 20.6695C90.6536 20.8342 90.736 21.0813 90.5301 21.3695C89.5831 22.8518 88.4302 24.2517 87.0303 25.5281C85.7539 26.7222 84.1069 27.2986 82.0482 27.2986C79.4954 27.2986 77.6013 26.4751 76.4073 24.787C75.2132 23.0988 74.5956 21.1225 74.5544 18.8579C74.5133 17.4991 74.5956 16.2227 74.8427 14.9463C75.7485 10.2936 78.4248 0.905836 84.4775 0.905836C86.9891 0.905836 88.6361 2.01754 89.4184 4.28213C89.7066 5.22914 89.7889 6.29968 89.6654 7.41139C88.8831 12.8876 83.4481 16.305 78.2189 16.4286C78.0954 17.6226 78.0954 18.8167 78.2189 20.0107C78.3425 21.0401 78.6719 22.193 79.2071 23.4282C79.7424 24.6634 80.6482 25.3634 81.8835 25.4869C83.201 25.4869 84.2716 24.9517 85.0539 23.84C85.8362 22.8106 86.495 21.8636 87.1126 20.9578V20.9578ZM81.4306 6.29968L80.8129 7.49373C79.66 9.84067 78.8777 12.27 78.4248 14.7816C80.2777 14.5757 81.8835 13.8346 83.2422 12.5582C84.6421 11.2818 85.5892 9.71715 86.0421 7.94665C86.3303 6.87612 86.3715 5.88793 86.2068 5.02327C86.1656 4.61153 85.9597 4.11744 85.6303 3.541C85.3421 2.92338 84.9304 2.63516 84.4363 2.63516C83.8598 2.67633 83.2834 3.17043 82.6658 4.11744C82.0893 5.02327 81.6776 5.76441 81.4306 6.29968ZM97.9899 1.02936C97.784 5.18797 97.6605 9.4701 97.6193 13.8758C97.5781 18.2814 97.5781 22.6047 97.6193 26.7633C97.4958 27.5457 96.384 27.628 95.7664 27.628C95.2312 27.628 94.0371 27.5457 94.0371 26.7633C93.9959 22.44 93.9959 18.1579 94.0371 13.8758C94.0783 9.59363 94.243 5.35267 94.4489 1.02936C94.4489 0.329395 95.6841 0.164697 96.2194 0.164697C96.6723 0.164697 97.084 0.247046 97.4958 0.370569C97.8663 0.494092 98.031 0.741139 97.9899 1.02936ZM126.909 8.48192C130.861 8.60544 132.92 10.9524 133.373 14.6992C133.497 15.811 133.455 17.005 133.291 18.2814C132.632 22.8106 130.367 28.0809 125.138 28.0809C124.768 28.0809 124.397 28.0397 124.068 27.9986C121.803 27.7104 120.197 26.3928 119.086 24.4576L119.003 26.0222C119.003 26.8045 117.768 26.8869 117.233 26.8869C116.821 26.8869 116.409 26.8045 115.997 26.681C115.586 26.5575 115.421 26.3104 115.462 26.0222L116.78 1.15288C116.903 0.370569 117.974 0.329395 118.591 0.329395C119.044 0.329395 119.456 0.411743 119.868 0.535266C120.238 0.658789 120.403 0.864662 120.362 1.15288C120.238 2.92338 120.197 4.61153 120.074 6.29968C119.95 8.07018 119.909 9.71715 119.785 11.4876L120.568 10.7465C122.338 9.22306 124.438 8.48192 126.909 8.48192V8.48192ZM129.914 15.7286C129.914 13.6287 129.42 10.1289 126.703 10.1289H126.25C124.397 10.4171 123.121 11.323 122.338 12.8876C121.556 14.411 121.103 16.0168 120.98 17.6638C120.856 19.5167 121.062 21.246 121.68 22.8518C122.256 24.4988 123.121 25.5693 124.315 26.1046C124.726 26.2281 125.056 26.3104 125.262 26.3104C127.609 26.3104 128.967 22.0283 129.42 20.0519C129.75 18.6108 129.791 17.2109 129.914 15.7286V15.7286ZM140.462 1.02936C140.256 5.18797 140.133 9.4701 140.092 13.8758C140.051 18.2814 140.051 22.6047 140.092 26.7633C139.968 27.5457 138.856 27.628 138.239 27.628C137.704 27.628 136.51 27.5457 136.51 26.7633C136.468 22.44 136.468 18.1579 136.51 13.8758C136.551 9.59363 136.715 5.35267 136.921 1.02936C136.921 0.329395 138.156 0.164697 138.692 0.164697C139.145 0.164697 139.556 0.247046 139.968 0.370569C140.339 0.494092 140.503 0.741139 140.462 1.02936V1.02936ZM159.286 8.97601C159.492 10.6642 159.574 12.27 159.451 13.7522C159.245 16.7168 158.998 19.7637 157.722 22.5224C156.569 25.034 153.933 26.7222 151.134 26.7222C149.445 26.7222 147.922 26.2281 146.563 25.1987C145.205 24.1694 144.34 22.8106 143.887 21.1636C143.475 19.6402 143.31 18.0755 143.434 16.5109C143.763 11.2406 144.505 1.89402 151.628 1.89402C153.769 1.89402 155.498 2.55281 156.816 3.91156C158.174 5.27032 158.998 6.95847 159.286 8.97601V8.97601ZM155.786 15.811L155.869 12.6817C155.91 11.57 155.869 10.4583 155.827 9.26423C155.745 8.07018 155.375 6.87612 154.675 5.72324C154.016 4.52918 152.986 3.95274 151.587 3.95274C151.134 3.95274 150.598 4.19979 150.063 4.6527C147.757 7.90548 147.346 11.817 147.057 15.6463C147.016 16.7168 147.016 17.7873 147.057 18.899C147.14 20.9166 147.84 22.6459 149.116 24.0047C149.693 24.6223 150.351 24.9517 151.051 24.9517C151.422 24.9517 151.834 24.8281 152.204 24.6223C153.563 23.7576 154.51 22.44 154.963 20.7107C155.457 18.9814 155.745 17.3344 155.786 15.811V15.811ZM178.975 1.81167V1.85285C179.098 1.97637 179.139 2.09989 179.139 2.22342L179.016 8.23487L178.892 14.2463C178.851 15.9345 178.851 17.705 178.851 19.5166C178.81 21.7812 178.151 23.7988 176.875 25.5693C175.64 27.3398 173.828 28.2044 171.399 28.2044C168.311 28.2044 165.511 26.5163 163.864 24.0047C163.658 23.7164 163.781 23.4694 164.234 23.3047C164.646 23.14 165.14 23.0576 165.675 23.0576C166.54 23.0576 167.075 23.2223 167.322 23.5929C168.187 24.9105 169.34 26.4751 171.11 26.4751C173.21 26.4751 174.816 23.2223 175.022 21.4107C175.145 20.2578 175.228 19.1049 175.269 17.952L175.351 16.0992V14.3287C173.828 15.7698 171.481 16.5521 169.381 16.5521C166.622 16.5521 163.905 15.2757 163.04 12.517C162.711 11.5288 162.628 10.4171 162.752 9.14071C163.205 4.61153 166.499 0 171.357 0C173.046 0 174.446 0.452918 175.64 1.35875C175.928 1.07053 176.422 0.947011 177.163 0.947011C177.781 0.947011 178.851 1.02936 178.975 1.81167V1.81167ZM166.911 13.1346C167.569 14.2463 168.393 14.8228 169.34 14.8228C172.14 14.8228 174.075 11.4053 174.734 8.97601C174.94 8.15252 175.145 7.28786 175.269 6.4232C174.734 6.21733 174.487 5.97028 174.487 5.68206C174.404 4.8174 174.116 3.91156 173.622 3.0469C173.169 2.14107 172.428 1.68815 171.399 1.68815C168.805 1.68815 166.911 6.71142 166.375 8.81131C166.005 10.3348 166.169 11.7759 166.911 13.1346V13.1346Z" fill="#393E46"/>
</svg>
